<svg width="40" height="40" viewBox="0 0 40 40" fill="none" xmlns="http://www.w3.org/2000/svg">
<path d="M31.6668 6.66669H8.3335C7.00741 6.66669 5.73564 7.19347 4.79796 8.13115C3.86028 9.06884 3.3335 10.3406 3.3335 11.6667V28.3334C3.3335 29.6594 3.86028 30.9312 4.79796 31.8689C5.73564 32.8066 7.00741 33.3334 8.3335 33.3334H31.6668C32.9929 33.3334 34.2647 32.8066 35.2024 31.8689C36.14 30.9312 36.6668 29.6594 36.6668 28.3334V11.6667C36.6668 10.3406 36.14 9.06884 35.2024 8.13115C34.2647 7.19347 32.9929 6.66669 31.6668 6.66669ZM30.5502 10L20.0002 17.9167L9.45016 10H30.5502ZM31.6668 30H8.3335C7.89147 30 7.46755 29.8244 7.15499 29.5119C6.84242 29.1993 6.66683 28.7754 6.66683 28.3334V12.0834L19.0002 21.3334C19.2887 21.5497 19.6395 21.6667 20.0002 21.6667C20.3608 21.6667 20.7117 21.5497 21.0002 21.3334L33.3335 12.0834V28.3334C33.3335 28.7754 33.1579 29.1993 32.8453 29.5119C32.5328 29.8244 32.1089 30 31.6668 30Z" fill="#149211"/>
</svg>
