<svg width="40" height="40" viewBox="0 0 40 40" fill="none" xmlns="http://www.w3.org/2000/svg">
<path d="M36.6668 20C36.6668 17.8113 36.2357 15.644 35.3982 13.6219C34.5606 11.5998 33.3329 9.76251 31.7853 8.21487C30.2376 6.66722 28.4003 5.43957 26.3782 4.60199C24.3561 3.76441 22.1889 3.33331 20.0002 3.33331C15.5799 3.33331 11.3407 5.08926 8.21505 8.21487C5.08944 11.3405 3.3335 15.5797 3.3335 20C3.3335 24.4203 5.08944 28.6595 8.21505 31.7851C11.3407 34.9107 15.5799 36.6666 20.0002 36.6666C24.4204 36.6666 28.6597 34.9107 31.7853 31.7851C34.9109 28.6595 36.6668 24.4203 36.6668 20ZM33.2168 18.3333H28.3335C28.0586 14.4136 26.7156 10.6439 24.4502 7.43331C26.7776 8.25992 28.8297 9.71676 30.3776 11.6414C31.9256 13.566 32.9085 15.8828 33.2168 18.3333ZM15.1335 21.6666H25.0002C24.5736 25.7843 22.8186 29.6513 20.0002 32.6833C17.1836 29.6639 15.4688 25.7821 15.1335 21.6666ZM15.1335 18.3333C15.5216 14.2364 17.2295 10.3762 20.0002 7.33331C22.8413 10.3435 24.6004 14.2134 25.0002 18.3333H15.1335ZM15.7335 7.38331C13.4561 10.6117 12.0915 14.3945 11.7835 18.3333H6.7835C7.09834 15.8525 8.10451 13.5102 9.68711 11.5739C11.2697 9.63768 13.3649 8.18553 15.7335 7.38331ZM6.7835 21.6666H11.7835C12.058 25.6021 13.4133 29.3854 15.7002 32.6C13.3401 31.7938 11.2535 30.342 9.67728 28.4093C8.10108 26.4766 7.09852 24.1406 6.7835 21.6666ZM24.3668 32.5833C26.6475 29.3678 28.0179 25.5962 28.3335 21.6666H33.2502C32.935 24.1337 31.936 26.4635 30.3662 28.3926C28.7964 30.3217 26.7183 31.7733 24.3668 32.5833Z" fill="#F25822"/>
</svg>
