<svg width="40" height="40" viewBox="0 0 40 40" fill="none" xmlns="http://www.w3.org/2000/svg">
<path d="M21.6667 3.33337C21.2246 3.33337 20.8007 3.50897 20.4882 3.82153C20.1756 4.13409 20 4.55801 20 5.00004V18.3334C20 18.7754 20.1756 19.1993 20.4882 19.5119C20.8007 19.8244 21.2246 20 21.6667 20H35C35.442 20 35.866 19.8244 36.1785 19.5119C36.4911 19.1993 36.6667 18.7754 36.6667 18.3334C36.6667 14.3551 35.0863 10.5398 32.2733 7.72677C29.4602 4.91373 25.6449 3.33337 21.6667 3.33337ZM23.3333 16.6667V6.78337C25.827 7.14273 28.1374 8.29967 29.9189 10.0812C31.7004 11.8627 32.8573 14.173 33.2167 16.6667H23.3333Z" fill="#FFC700"/>
<path d="M34.7002 23.4332C34.4934 23.3593 34.2741 23.327 34.0548 23.3381C33.8354 23.3492 33.6205 23.4036 33.4222 23.4981C33.224 23.5926 33.0464 23.7253 32.8996 23.8886C32.7528 24.052 32.6397 24.2427 32.5669 24.4499C31.8158 26.5731 30.5392 28.4714 28.856 29.9678C27.1729 31.4642 25.1382 32.5099 22.9416 33.0073C20.7451 33.5047 18.4584 33.4376 16.2948 32.8123C14.1312 32.187 12.1613 31.0238 10.5688 29.4313C8.97631 27.8388 7.81314 25.8689 7.18782 23.7053C6.5625 21.5417 6.49541 19.255 6.99281 17.0585C7.49021 14.8619 8.53588 12.8272 10.0323 11.1441C11.5287 9.46096 13.427 8.1843 15.5502 7.43321C15.9679 7.28734 16.3106 6.98151 16.5028 6.583C16.6951 6.18448 16.7211 5.72593 16.5752 5.30821C16.4294 4.8905 16.1235 4.54784 15.725 4.35561C15.3265 4.16339 14.8679 4.13734 14.4502 4.28321C11.7953 5.22117 9.42128 6.81648 7.54976 8.92025C5.67823 11.024 4.3702 13.5676 3.74777 16.3137C3.12533 19.0598 3.20877 21.9188 3.9903 24.6239C4.77183 27.3291 6.22597 29.7921 8.217 31.7831C10.208 33.7741 12.6711 35.2283 15.3762 36.0098C18.0813 36.7913 20.9403 36.8748 23.6864 36.2523C26.4325 35.6299 28.9761 34.3219 31.0799 32.4504C33.1836 30.5788 34.7789 28.2048 35.7169 25.5499C35.861 25.1343 35.8351 24.6786 35.6446 24.2821C35.4542 23.8856 35.1147 23.5805 34.7002 23.4332Z" fill="#FFC700"/>
</svg>
